<?xml version="1.0" encoding="utf-8"?>
<!-- Generator: Adobe Illustrator 21.1.0, SVG Export Plug-In . SVG Version: 6.00 Build 0)  -->
<svg version="1.1" id="Layer_1" xmlns="http://www.w3.org/2000/svg" xmlns:xlink="http://www.w3.org/1999/xlink" x="0px" y="0px"
	 viewBox="0 0 55.8 213.3" style="enable-background:new 0 0 55.8 213.3;" xml:space="preserve">
<style type="text/css">
	.st0{fill:#FFFFFF;}
</style>
<g>
	<path class="st0" d="M28.2,11.2c-12.7,0-22.9,10.3-22.9,22.9c0,12.7,10.3,22.9,22.9,22.9s22.9-10.3,22.9-22.9
		C51.2,21.5,40.9,11.2,28.2,11.2z M28.1,53.3C17.6,53.3,9,44.7,9,34.2S17.6,15,28.1,15s19.1,8.6,19.1,19.1S38.7,53.3,28.1,53.3z"/>
	<path class="st0" d="M16.7,33.3l8.5-7c1.9-1.6,1.9,0.9,1.9,0.9v1.5c0.1,0.5,0.5,1.4,2.2,1.4h8.5h0.8c0,0,1.8-0.1,1.8,1.8v0.6v2.9
		v0.5c0,0.7-0.4,2.1-2.7,2.1h-9c-1.7,0-1.6-1.3-1.6-1.3v-0.1c0-1,1-1.2,1.5-1.2h7.6c1.3,0,1.6-0.7,1.7-1.1v-0.5
		c0-1.1-0.8-1.3-1.3-1.3h-9.5h-0.3c-1.5,0-2-0.8-2.2-1.4l0,0c0,0-0.2-0.9-1-0.2l-3.3,2.7c0,0,0,0,0,0l0,0c-0.2,0.2-1,1,0.1,1.8
		l2.7,1.9l0,0l1.5,1.1v0l1.3,0.9c1.3,0.9,1.3,2.3,1.3,2.3v0.3c0,0-0.2,1.3-1.4,0.4l-9-6.3c0,0,0,0,0,0
		C15.1,34.7,16.7,33.3,16.7,33.3z"/>
</g>
<g>
	<path class="st0" d="M6.3,106.4c0.3,0,0.6-0.3,0.6-0.6c0-3.5,2.8-6.3,6.3-6.3h13.7v5.1l7.8-5.7l-7.8-5.7v5.1H13.1
		c-4.1,0-7.4,3.3-7.4,7.4C5.7,106.1,6,106.4,6.3,106.4L6.3,106.4z M27.9,95.5l4.7,3.4l-4.7,3.4V95.5z M27.9,95.5"/>
	<path class="st0" d="M33.6,107c-0.3,0-0.6,0.3-0.6,0.6c0,3.5-2.8,6.3-6.3,6.3H13.1v-5.1l-7.8,5.7l7.8,5.7v-5.1h13.7
		c4.1,0,7.4-3.3,7.4-7.4C34.2,107.2,33.9,107,33.6,107L33.6,107z M12,117.8l-4.7-3.4l4.7-3.4V117.8z M12,117.8"/>
</g>
<g>
	<path class="st0" d="M28.2,156.3c-12.7,0-22.9,10.3-22.9,22.9s10.3,22.9,22.9,22.9s22.9-10.3,22.9-22.9S40.9,156.3,28.2,156.3z
		 M28.1,198.3c-10.6,0-19.1-8.6-19.1-19.1s8.6-19.1,19.1-19.1s19.1,8.6,19.1,19.1S38.7,198.3,28.1,198.3z"/>
	<path class="st0" d="M39.7,178.4l-8.5-7c-1.9-1.6-1.9,0.9-1.9,0.9v1.5c-0.1,0.5-0.5,1.4-2.2,1.4h-8.5h-0.8c0,0-1.8-0.1-1.8,1.8v0.6
		v2.9v0.5c0,0.7,0.4,2.1,2.7,2.1h9c1.7,0,1.6-1.3,1.6-1.3v-0.1c0-1-1-1.2-1.5-1.2h-7.6c-1.3,0-1.6-0.7-1.7-1.1v-0.5
		c0-1.1,0.8-1.3,1.3-1.3h9.5h0.3c1.5,0,2-0.8,2.2-1.4h0c0,0,0.2-0.9,1-0.2l3.3,2.7l0,0l0,0c0.2,0.2,1,1-0.1,1.8l-2.7,1.9l0,0
		l-1.5,1.1v0l-1.3,0.9c-1.3,0.9-1.3,2.3-1.3,2.3v0.3c0,0,0.2,1.3,1.4,0.4l9-6.3l0,0C41.4,179.8,39.7,178.4,39.7,178.4z"/>
</g>
</svg>
