<svg id="Layer_1" data-name="Layer 1" xmlns="http://www.w3.org/2000/svg" viewBox="0 0 77.55 135.45">
  <defs>
    <style>
      .cls-1 {
        font-size: 9.8px;
        letter-spacing: -0.02em;
      }

      .cls-1, .cls-2, .cls-4, .cls-6, .cls-7 {
        fill: #fff;
      }

      .cls-1, .cls-6 {
        font-family: Roboto-MediumItalic, Roboto;
        font-style: italic;
      }

      .cls-2 {
        font-size: 13.73px;
        letter-spacing: -0.03em;
      }

      .cls-2, .cls-7 {
        font-family: Roboto-Medium, Roboto;
      }

      .cls-3 {
        fill: #d6dbc8;
      }

      .cls-5 {
        fill: #a03232;
      }

      .cls-6 {
        font-size: 10px;
        letter-spacing: -0.02em;
      }

      .cls-7 {
        font-size: 14px;
        letter-spacing: -0.02em;
      }

      .cls-8 {
        fill: #315e19;
      }
    </style>
  </defs>
  <title>top-action-buttons</title>
  <text class="cls-1" transform="translate(34.64 8.39) scale(1.03 1)">Send to</text>
  <text class="cls-2" transform="translate(34.64 23.09) scale(1.03 1)">PRINT</text>
  <g>
    <path class="cls-3" d="M23.93,13.42H15.88c-1.33,0-2.41,1.39-2.41,3.11v4.91c0,1.72,1.08,3.11,2.41,3.11h8.05c1.33,0,2.41-1.39,2.41-3.11V16.53C26.35,14.81,25.27,13.42,23.93,13.42Zm.16,9H15.72a.58.58,0,0,1,0-1.12h8.37a.58.58,0,0,1,0,1.12Zm0-2.87H15.72a.58.58,0,0,1,0-1.12h8.37a.58.58,0,0,1,0,1.12Z" transform="translate(-6.98 -11.08)"/>
    <path class="cls-3" d="M23.93,31.52H15.88c-1.33,0-2.41,1.39-2.41,3.11H26.35C26.35,32.91,25.27,31.52,23.93,31.52Z" transform="translate(-6.98 -11.08)"/>
    <path class="cls-3" d="M30.29,20.18H27.2v1.26c0,2.32-1.46,4.2-3.26,4.2H15.88c-1.8,0-3.26-1.88-3.26-4.2V20.18H9.52C8.12,20.18,7,21.64,7,23.45v6.76C7,32,8.12,33.49,9.52,33.49h3.22a3.51,3.51,0,0,1,3.14-3.05h8.05a3.51,3.51,0,0,1,3.14,3.05h3.22c1.41,0,2.54-1.46,2.54-3.27V23.45C32.83,21.64,31.7,20.18,30.29,20.18ZM25.44,29a1.21,1.21,0,0,1,0-2.34,1.21,1.21,0,0,1,0,2.34Zm2.93,0a1.21,1.21,0,0,1,0-2.34,1.21,1.21,0,0,1,0,2.34Z" transform="translate(-6.98 -11.08)"/>
  </g>
  <g>
    <path class="cls-3" d="M37.53,67.85V91.54a2.9,2.9,0,0,1-2.95,2.84H12A2.9,2.9,0,0,1,9,91.54V61.22A2.9,2.9,0,0,1,12,58.38H27.7Z" transform="translate(-6.98 -11.08)"/>
    <path class="cls-4" d="M37.53,67.32V68.5h-8c-1.66,0-2.43-1.31-2.43-2.91V58.38h1.22Z" transform="translate(-6.98 -11.08)"/>
    <path class="cls-5" d="M31.25,76.83a2.45,2.45,0,0,0-.75-.12.76.76,0,0,0-.56.16.84.84,0,0,0-.15.58V78h1.14V79H29.79V83.4H28.41V79h-.71V78h.71v-.53A1.84,1.84,0,0,1,28.92,76a2.32,2.32,0,0,1,1.56-.45,4.5,4.5,0,0,1,1,.13Zm-5.8,6a3.47,3.47,0,0,1-.82.5,2.43,2.43,0,0,1-1,.19A1.92,1.92,0,0,1,22,82.82a3.38,3.38,0,0,1-.56-2.09,3.32,3.32,0,0,1,.62-2.15,2.11,2.11,0,0,1,1.74-.77,2.3,2.3,0,0,1,.81.16,2.2,2.2,0,0,1,.69.4V75.7h1.38v7.7H25.45Zm-.11-3.39a2.23,2.23,0,0,0-.54-.34,1.59,1.59,0,0,0-.66-.15,1.06,1.06,0,0,0-.9.46,2.08,2.08,0,0,0-.34,1.25,2.32,2.32,0,0,0,.28,1.23.94.94,0,0,0,.86.44,1.77,1.77,0,0,0,.7-.15,2.25,2.25,0,0,0,.61-.37Zm-5.91,3.73a2.09,2.09,0,0,1-1.22.35A2.37,2.37,0,0,1,16.62,83v2.45H15.23V78h1.28v.53a3.34,3.34,0,0,1,.81-.5,2.46,2.46,0,0,1,1-.18,1.93,1.93,0,0,1,1.62.72,3.4,3.4,0,0,1,.56,2.1,4,4,0,0,1-.27,1.54A2.22,2.22,0,0,1,19.43,83.21Zm-.65-3.77a.94.94,0,0,0-.85-.44,1.77,1.77,0,0,0-.69.15,2.33,2.33,0,0,0-.61.37V81.9a2.21,2.21,0,0,0,.54.34,1.6,1.6,0,0,0,.67.15,1,1,0,0,0,.9-.47,2.12,2.12,0,0,0,.33-1.24A2.28,2.28,0,0,0,18.77,79.44Z" transform="translate(-6.98 -11.08)"/>
  </g>
  <text class="cls-6" transform="translate(36.69 62.3) scale(1.03 1)">Export to</text>
  <text class="cls-7" transform="translate(36.69 77.3) scale(1.03 1)">PDF</text>
  <g>
    <path class="cls-3" d="M38,120.52v23.22a2.84,2.84,0,0,1-2.89,2.79H13a2.84,2.84,0,0,1-2.89-2.79V114A2.84,2.84,0,0,1,13,111.23H28.39Z" transform="translate(-6.98 -11.08)"/>
    <path class="cls-8" d="M28.11,132a1.16,1.16,0,0,0-.63.14.41.41,0,0,0-.21.35.37.37,0,0,0,.19.33,2.81,2.81,0,0,0,.76.26,5.75,5.75,0,0,1,1.32.44,1.61,1.61,0,0,1,.6.54,1.61,1.61,0,0,1-.07,1.68,1.69,1.69,0,0,1-.77.56,3.12,3.12,0,0,1-1.14.19,2.6,2.6,0,0,1-2.32-.91l1-.67a1.18,1.18,0,0,0,.56.43,2.11,2.11,0,0,0,.68.11q1,0,1-.53a.4.4,0,0,0-.27-.36,4.57,4.57,0,0,0-.84-.26,3.19,3.19,0,0,1-1.52-.65,1.43,1.43,0,0,1-.44-1.09,1.41,1.41,0,0,1,.55-1.14,2.52,2.52,0,0,1,1.62-.45,3.42,3.42,0,0,1,1.29.22,1.82,1.82,0,0,1,.86.67l-1,.68A1.3,1.3,0,0,0,28.11,132Zm-4.75-3.1H24.7v7.43H23.36Zm-2.49,7.43-1.08-1.67-1.13,1.67H17.19l1.87-2.58-1.84-2.65h1.56l1.08,1.66L21,131.11h1.47l-1.87,2.58,1.88,2.65Z" transform="translate(-6.98 -11.08)"/>
    <path class="cls-4" d="M38,120v1.16H30.15c-1.63,0-2.38-1.28-2.38-2.86v-7.07H29Z" transform="translate(-6.98 -11.08)"/>
  </g>
  <text class="cls-1" transform="translate(37.06 114.86) scale(1.03 1)">Export to</text>
  <text class="cls-2" transform="translate(37.06 129.56) scale(1.03 1)">EXCEL</text>
</svg>
